<?xml version="1.0" encoding="UTF-8"?>
<svg width="271px" height="50px" viewBox="0 0 271 50" version="1.1" xmlns="http://www.w3.org/2000/svg" xmlns:xlink="http://www.w3.org/1999/xlink">
    <title>Group</title>
    <g id="Page-1" stroke="none" stroke-width="1" fill="none" fill-rule="evenodd">
        <g id="Artboard" fill-rule="nonzero">
            <g id="Group">
                <g id="canary" transform="translate(230.000000, -0.000000)" fill="#FFCC00">
                    <path d="M5.52597403,48.94375 C5.20610311,48.9432291 4.90757904,48.7824564 4.73014634,48.5151502 C4.55271364,48.247844 4.51976749,47.9092496 4.64231602,47.6125 L13.8336039,25.8125 C14.0181762,25.3879666 14.4776695,25.1557053 14.9271193,25.2597577 C15.3765692,25.3638101 15.6884625,25.7746557 15.6693723,26.2375 L14.711039,44.9875 C14.6858176,45.3682587 14.4430933,45.6997989 14.0887446,45.8375 L5.85579004,48.91875 C5.74800804,48.9454931 5.63653159,48.953943 5.52597403,48.94375 L5.52597403,48.94375 Z M13.4788961,31.575 L7.25595238,46.30625 L12.8192641,44.225 L13.4788961,31.575 Z" id="Shape"></path>
                    <path d="M13.9954004,41.1625 C13.7945378,41.1617318 13.598858,41.0984052 13.4353355,40.98125 C13.1728463,40.7916245 13.0249853,40.4804734 13.04329,40.15625 L13.7589286,25.69375 C13.776204,25.3769072 13.9478584,25.0889747 14.2177852,24.9240657 C14.4877119,24.7591567 14.821223,24.7384636 15.1093074,24.86875 L31.737013,32.4625 C32.0865361,32.6204381 32.3076926,32.9734662 32.2981817,33.3582833 C32.2886709,33.7431004 32.0503472,34.0846734 31.6934524,34.225 L14.3501082,41.1 C14.2377059,41.1461498 14.1167316,41.1674657 13.9954004,41.1625 L13.9954004,41.1625 Z M15.6009199,27.2 L15.0221861,38.75 L28.8869048,33.25625 L15.6009199,27.2 Z" id="Shape"></path>
                    <path d="M31.3325216,34.2939334 C31.1968618,34.2954166 31.0626652,34.2654654 30.9404762,34.20625 L14.3127706,26.61875 C13.8736136,26.4172501 13.6522831,25.9190998 13.7962662,25.45625 L18.8928571,9.075 C19.0118022,8.69892088 19.3472513,8.43385394 19.7391775,8.40625 C20.1291808,8.37560813 20.4977268,8.58925075 20.6663961,8.94375 L32.1912879,32.91875 C32.3320516,33.2167959 32.3110357,33.566481 32.135599,33.8453578 C31.9601623,34.1242346 31.654747,34.2934497 31.3262987,34.2939334 L31.3325216,34.2939334 Z M15.8809524,25.21875 L29.3287338,31.3625 L19.9943182,11.9875 L15.8809524,25.21875 Z" id="Shape"></path>
                    <path d="M14.711039,26.70625 C14.3597932,26.7048771 14.0374398,26.5106241 13.8709416,26.2 L1.08901515,2.30625 C0.896987399,1.94732878 0.950789109,1.50585497 1.22333918,1.20404451 C1.49588925,0.902234044 1.92812849,0.805486588 2.30248918,0.9625 L20.1810065,8.4625 C20.6362731,8.655461 20.8727098,9.16277194 20.7286255,9.6375 L15.6258117,26.01875 C15.5117447,26.3879201 15.1876035,26.6518132 14.8043831,26.6875 L14.711039,26.70625 Z M4.05113636,3.78125 L14.48079,23.28125 L18.6688312,9.9125 L4.05113636,3.78125 Z" id="Shape"></path>
                    <path d="M31.3387446,34.29375 C30.9775014,34.2860129 30.650859,34.0761493 30.4924242,33.75 L26.4786255,25.4 C26.3355718,25.1014568 26.35435,24.750193 26.5284091,24.46875 C26.7025618,24.1884619 27.0084363,24.0183179 27.3373918,24.0187476 L35.1720779,24.0187476 C35.4970581,24.0210173 35.7987498,24.1885458 35.9734719,24.4637617 C36.1481939,24.7389776 36.1721349,25.0843741 36.0370671,25.38125 L32.2037338,33.75 C32.0510143,34.0895014 31.7158808,34.3090171 31.3449675,34.3125 L31.3387446,34.29375 Z M28.8495671,25.94375 L31.3387446,31.08125 L33.6847944,25.94375 L28.8495671,25.94375 Z" id="Shape"></path>
                    <path d="M38.2026515,33.125 C38.0990559,33.1241682 37.9962069,33.1073035 37.8977273,33.075 L32.4090909,31.25 C32.1520807,31.1645455 31.9434448,30.9732441 31.8353682,30.7239451 C31.7272916,30.474646 31.7299953,30.1909258 31.842803,29.94375 L34.282197,24.6 C34.4380261,24.257467 34.7784452,24.0376746 35.1534091,24.0375 L35.1534091,24.0375 C35.5319786,24.0445178 35.870943,24.2747422 36.0183983,24.625 L39.0676407,31.79375 C39.2174184,32.1398482 39.149027,32.5421685 38.8933983,32.81875 C38.7137298,33.0102667 38.4646139,33.1207149 38.2026515,33.125 L38.2026515,33.125 Z M34.0270563,29.7625 L36.485119,30.58125 L35.1222944,27.3625 L34.0270563,29.7625 Z" id="Shape"></path>
                    <ellipse id="Oval" cx="1.9353355" cy="1.85" rx="1.84199134" ry="1.85"></ellipse>
                    <ellipse id="Oval" cx="19.8138528" cy="9.3625" rx="1.84199134" ry="1.85"></ellipse>
                    <ellipse id="Oval" cx="14.711039" cy="25.74375" rx="1.84199134" ry="1.85"></ellipse>
                    <ellipse id="Oval" cx="13.9954004" cy="40.20625" rx="1.84199134" ry="1.85"></ellipse>
                    <ellipse id="Oval" cx="13.7651515" cy="44.8875" rx="1.84199134" ry="1.85"></ellipse>
                    <ellipse id="Oval" cx="5.52597403" cy="47.9875" rx="1.84199134" ry="1.85"></ellipse>
                    <ellipse id="Oval" cx="31.3387446" cy="33.33125" rx="1.84199134" ry="1.85"></ellipse>
                    <ellipse id="Oval" cx="35.1534091" cy="24.98125" rx="1.84199134" ry="1.85"></ellipse>
                    <ellipse id="Oval" cx="38.2026515" cy="31.9625" rx="1.84199134" ry="1.85"></ellipse>
                    <ellipse id="Oval" cx="27.3187229" cy="24.98125" rx="1.84199134" ry="1.85"></ellipse>
                </g>
                <path d="M162.683333,34 C163.06875,34 163.34349,33.9257812 163.507552,33.7773438 C163.671615,33.6289062 163.753646,33.4375 163.753646,33.203125 C163.753646,32.9635417 163.671615,32.7695312 163.507552,32.6210938 C163.34349,32.4726562 163.06875,32.3984375 162.683333,32.3984375 L162.683333,32.3984375 L161.605208,32.3984375 L161.605208,26.1328125 L163.363021,26.1328125 L163.363021,27.6484375 C163.363021,28.0338542 163.43724,28.3085938 163.585677,28.4726562 C163.734115,28.6367188 163.925521,28.71875 164.159896,28.71875 C164.399479,28.71875 164.59349,28.6367188 164.741927,28.4726562 C164.890365,28.3085938 164.964583,28.0338542 164.964583,27.6484375 L164.964583,27.6484375 L164.964583,24.53125 L156.667708,24.5234375 L156.667708,27.6484375 C156.667708,28.0338542 156.741927,28.3085938 156.890365,28.4726562 C157.038802,28.6367188 157.230208,28.71875 157.464583,28.71875 C157.704167,28.71875 157.898177,28.6367188 158.046615,28.4726562 C158.195052,28.3085938 158.269271,28.0338542 158.269271,27.6484375 L158.269271,27.6484375 L158.269271,26.1328125 L160.003646,26.1328125 L160.003646,32.3984375 L158.933333,32.3984375 C158.547917,32.3984375 158.273177,32.4726562 158.109115,32.6210938 C157.945052,32.7695312 157.863021,32.9609375 157.863021,33.1953125 C157.863021,33.4348958 157.945052,33.6289062 158.109115,33.7773438 C158.273177,33.9257812 158.547917,34 158.933333,34 L158.933333,34 L162.683333,34 Z M170.6375,34.2578125 C171.382292,34.2578125 172.158333,34.1705729 172.965625,33.9960938 C173.772917,33.8216146 174.280729,33.6380208 174.489062,33.4453125 C174.645312,33.2994792 174.723437,33.1223958 174.723437,32.9140625 C174.723437,32.6848958 174.650521,32.4947917 174.504687,32.34375 C174.358854,32.1927083 174.179167,32.1171875 173.965625,32.1171875 C173.809375,32.1171875 173.528125,32.1692708 173.121875,32.2734375 C172.1375,32.5286458 171.348437,32.65625 170.754687,32.65625 C170.030729,32.65625 169.45651,32.5286458 169.032031,32.2734375 C168.607552,32.0182292 168.311979,31.6822917 168.145312,31.265625 L168.145312,31.265625 L174.715625,31.265625 L174.715625,30.5859375 C174.715625,30.0651042 174.632292,29.6067708 174.465625,29.2109375 C174.220833,28.6432292 173.910937,28.1666667 173.535937,27.78125 C173.270312,27.515625 172.865365,27.2682292 172.321094,27.0390625 C171.776823,26.8098958 171.179167,26.6953125 170.528125,26.6953125 C169.444792,26.6953125 168.48776,27.0481771 167.657031,27.7539062 C166.826302,28.4596354 166.410937,29.375 166.410937,30.5 C166.410937,31.5572917 166.795052,32.4479167 167.563281,33.171875 C168.33151,33.8958333 169.35625,34.2578125 170.6375,34.2578125 Z M172.942187,29.6640625 L168.192187,29.6640625 C168.442187,29.2057292 168.765104,28.8632812 169.160937,28.6367188 C169.556771,28.4101562 170.025521,28.296875 170.567187,28.296875 C171.114062,28.296875 171.585417,28.4101562 171.98125,28.6367188 C172.377083,28.8632812 172.697396,29.2057292 172.942187,29.6640625 L172.942187,29.6640625 Z M180.966667,34.265625 C182.352083,34.265625 183.404167,34.0286458 184.122917,33.5546875 C184.607292,33.2369792 184.849479,32.9010417 184.849479,32.546875 C184.849479,32.328125 184.770052,32.1380208 184.611198,31.9765625 C184.452344,31.8151042 184.263542,31.734375 184.044792,31.734375 C183.8625,31.734375 183.659375,31.8346354 183.435417,32.0351562 C183.211458,32.2356771 182.974479,32.3776042 182.724479,32.4609375 C182.302604,32.5963542 181.758333,32.6640625 181.091667,32.6640625 C180.076042,32.6640625 179.349479,32.4830729 178.911979,32.1210938 C178.474479,31.7591146 178.255729,31.265625 178.255729,30.640625 C178.255729,29.9635417 178.483594,29.4036458 178.939323,28.9609375 C179.395052,28.5182292 180.000521,28.296875 180.755729,28.296875 C181.411979,28.296875 181.951042,28.421875 182.372917,28.671875 C182.6125,28.8125 182.763542,29.0273438 182.826042,29.3164062 C182.888542,29.6054688 182.974479,29.796875 183.083854,29.890625 C183.234896,30.015625 183.419792,30.078125 183.638542,30.078125 C183.878125,30.078125 184.072135,29.9973958 184.220573,29.8359375 C184.36901,29.6744792 184.443229,29.4010417 184.443229,29.015625 L184.443229,29.015625 L184.443229,27.984375 C184.443229,27.6041667 184.36901,27.3320312 184.220573,27.1679688 C184.072135,27.0039062 183.883333,26.921875 183.654167,26.921875 C183.451042,26.921875 183.253125,27.0130208 183.060417,27.1953125 C182.7375,27.0286458 182.385938,26.9036458 182.005729,26.8203125 C181.625521,26.7369792 181.214063,26.6953125 180.771354,26.6953125 C179.547396,26.6953125 178.555208,27.0690104 177.794792,27.8164062 C177.034375,28.5638021 176.654167,29.5078125 176.654167,30.6484375 C176.654167,31.8515625 177.122917,32.7994792 178.060417,33.4921875 C178.753125,34.0078125 179.721875,34.265625 180.966667,34.265625 Z M188.889583,34 C189.275,34 189.54974,33.9257812 189.713802,33.7773438 C189.877865,33.6289062 189.959896,33.4375 189.959896,33.203125 C189.959896,32.90625 189.832292,32.6770833 189.577083,32.515625 C189.457292,32.4375 189.191667,32.3984375 188.780208,32.3984375 L188.780208,32.3984375 L188.780208,29.3984375 C189.24375,28.9401042 189.61224,28.6419271 189.885677,28.5039062 C190.159115,28.3658854 190.472917,28.296875 190.827083,28.296875 C191.30625,28.296875 191.668229,28.4088542 191.913021,28.6328125 C192.100521,28.7994792 192.194271,29.0885417 192.194271,29.5 L192.194271,29.5 L192.194271,32.3984375 C191.793229,32.3932292 191.527604,32.4322917 191.397396,32.515625 C191.147396,32.6770833 191.022396,32.9036458 191.022396,33.1953125 C191.022396,33.4348958 191.104427,33.6289062 191.26849,33.7773438 C191.432552,33.9257812 191.704688,34 192.084896,34 L192.084896,34 L193.913021,34 C194.298438,34 194.571875,33.9257812 194.733333,33.7773438 C194.894792,33.6289062 194.975521,33.4375 194.975521,33.203125 C194.975521,32.90625 194.850521,32.6770833 194.600521,32.515625 C194.475521,32.4375 194.209896,32.3984375 193.803646,32.3984375 L193.803646,32.3984375 L193.803646,29.390625 C193.803646,28.7760417 193.661719,28.2669271 193.377865,27.8632812 C193.09401,27.4596354 192.735938,27.1640625 192.303646,26.9765625 C191.871354,26.7890625 191.379167,26.6953125 190.827083,26.6953125 C190.478125,26.6953125 190.133073,26.7434896 189.791927,26.8398438 C189.450781,26.9361979 189.113542,27.0833333 188.780208,27.28125 L188.780208,27.28125 L188.780208,23.8671875 L186.905208,23.8671875 C186.519792,23.8671875 186.245052,23.9414062 186.08099,24.0898438 C185.916927,24.2382812 185.834896,24.4296875 185.834896,24.6640625 C185.834896,24.9036458 185.916927,25.0976562 186.08099,25.2460938 C186.245052,25.3945312 186.519792,25.46875 186.905208,25.46875 L186.905208,25.46875 L187.178646,25.46875 L187.178646,32.3984375 C186.772396,32.3932292 186.506771,32.4322917 186.381771,32.515625 C186.126563,32.6770833 185.998958,32.9036458 185.998958,33.1953125 C185.998958,33.4348958 186.08099,33.6289062 186.245052,33.7773438 C186.409115,33.9257812 186.683854,34 187.069271,34 L187.069271,34 L188.889583,34 Z M200.015625,34 C200.84375,34 201.518229,33.8776042 202.039062,33.6328125 C202.367188,33.4765625 202.717448,33.2330729 203.089844,32.9023438 C203.46224,32.5716146 203.763021,32.1445312 203.992188,31.6210938 C204.221354,31.0976562 204.335938,30.4973958 204.335938,29.8203125 L204.335938,29.8203125 L204.335938,29.0546875 C204.335938,28.4973958 204.273438,28.0260417 204.148438,27.640625 C204.023438,27.2552083 203.83724,26.8671875 203.589844,26.4765625 C203.342448,26.0859375 203.104167,25.7786458 202.875,25.5546875 C202.572917,25.2578125 202.173177,25.0130208 201.675781,24.8203125 C201.178385,24.6276042 200.669271,24.53125 200.148438,24.53125 L200.148438,24.53125 L196.796875,24.5234375 C196.411458,24.5234375 196.136719,24.5976562 195.972656,24.7460938 C195.808594,24.8945312 195.726562,25.0885417 195.726562,25.328125 C195.726562,25.5625 195.807292,25.7539062 195.96875,25.9023438 C196.130208,26.0507812 196.380208,26.1276042 196.71875,26.1328125 L196.71875,26.1328125 L196.71875,32.3984375 C196.385417,32.3932292 196.136719,32.4661458 195.972656,32.6171875 C195.808594,32.7682292 195.726562,32.9609375 195.726562,33.1953125 C195.726562,33.4348958 195.808594,33.6289062 195.972656,33.7773438 C196.136719,33.9257812 196.411458,34 196.796875,34 L196.796875,34 L200.015625,34 Z M200.023438,32.3984375 L198.320312,32.3984375 L198.320312,26.1328125 L200.007812,26.1328125 C200.575521,26.1328125 201.048177,26.2434896 201.425781,26.4648438 C201.803385,26.6861979 202.143229,27.09375 202.445312,27.6875 C202.638021,28.0677083 202.734375,28.5104167 202.734375,29.015625 L202.734375,29.015625 L202.734375,29.7734375 C202.734375,30.3619792 202.627604,30.8411458 202.414062,31.2109375 C202.200521,31.5807292 201.882812,31.8854167 201.460938,32.125 C201.138021,32.3072917 200.658854,32.3984375 200.023438,32.3984375 L200.023438,32.3984375 Z M210.180729,34.2578125 C210.915104,34.2578125 211.619531,34.0872396 212.29401,33.7460938 C212.96849,33.4049479 213.476302,32.9466146 213.817448,32.3710938 C214.158594,31.7955729 214.329167,31.2005208 214.329167,30.5859375 C214.329167,29.9401042 214.157292,29.3111979 213.813542,28.6992188 C213.469792,28.0872396 212.960677,27.6002604 212.286198,27.2382812 C211.611719,26.8763021 210.909896,26.6953125 210.180729,26.6953125 C209.456771,26.6953125 208.76276,26.8723958 208.098698,27.2265625 C207.434635,27.5807292 206.925521,28.0664062 206.571354,28.6835938 C206.217187,29.3007812 206.040104,29.9296875 206.040104,30.5703125 C206.040104,31.2005208 206.214583,31.8046875 206.563542,32.3828125 C206.9125,32.9609375 207.420312,33.4179688 208.086979,33.7539062 C208.753646,34.0898438 209.451562,34.2578125 210.180729,34.2578125 Z M210.180729,32.65625 C209.467187,32.65625 208.865625,32.4388021 208.376042,32.0039062 C207.886458,31.5690104 207.641667,31.1015625 207.641667,30.6015625 C207.641667,29.9921875 207.883854,29.4557292 208.368229,28.9921875 C208.852604,28.5286458 209.456771,28.296875 210.180729,28.296875 C211.003646,28.296875 211.667708,28.5885417 212.172917,29.171875 C212.542708,29.6041667 212.727604,30.078125 212.727604,30.59375 C212.727604,31.0989583 212.482812,31.5690104 211.993229,32.0039062 C211.503646,32.4388021 210.899479,32.65625 210.180729,32.65625 Z M220.439583,34.265625 C221.825,34.265625 222.877083,34.0286458 223.595833,33.5546875 C224.080208,33.2369792 224.322396,32.9010417 224.322396,32.546875 C224.322396,32.328125 224.242969,32.1380208 224.084115,31.9765625 C223.92526,31.8151042 223.736458,31.734375 223.517708,31.734375 C223.335417,31.734375 223.132292,31.8346354 222.908333,32.0351562 C222.684375,32.2356771 222.447396,32.3776042 222.197396,32.4609375 C221.775521,32.5963542 221.23125,32.6640625 220.564583,32.6640625 C219.548958,32.6640625 218.822396,32.4830729 218.384896,32.1210938 C217.947396,31.7591146 217.728646,31.265625 217.728646,30.640625 C217.728646,29.9635417 217.95651,29.4036458 218.41224,28.9609375 C218.867969,28.5182292 219.473437,28.296875 220.228646,28.296875 C220.884896,28.296875 221.423958,28.421875 221.845833,28.671875 C222.085417,28.8125 222.236458,29.0273438 222.298958,29.3164062 C222.361458,29.6054688 222.447396,29.796875 222.556771,29.890625 C222.707812,30.015625 222.892708,30.078125 223.111458,30.078125 C223.351042,30.078125 223.545052,29.9973958 223.69349,29.8359375 C223.841927,29.6744792 223.916146,29.4010417 223.916146,29.015625 L223.916146,29.015625 L223.916146,27.984375 C223.916146,27.6041667 223.841927,27.3320312 223.69349,27.1679688 C223.545052,27.0039062 223.35625,26.921875 223.127083,26.921875 C222.923958,26.921875 222.726042,27.0130208 222.533333,27.1953125 C222.210417,27.0286458 221.858854,26.9036458 221.478646,26.8203125 C221.098437,26.7369792 220.686979,26.6953125 220.244271,26.6953125 C219.020312,26.6953125 218.028125,27.0690104 217.267708,27.8164062 C216.507292,28.5638021 216.127083,29.5078125 216.127083,30.6484375 C216.127083,31.8515625 216.595833,32.7994792 217.533333,33.4921875 C218.226042,34.0078125 219.194792,34.265625 220.439583,34.265625 Z M229.995313,34.2578125 C231.151563,34.2578125 232.091667,33.9791667 232.815625,33.421875 C233.320833,33.0364583 233.573438,32.5572917 233.573438,31.984375 C233.573438,31.5625 233.425,31.1614583 233.128125,30.78125 C232.83125,30.4010417 232.409375,30.1145833 231.8625,29.921875 C231.445833,29.7760417 230.70625,29.6302083 229.64375,29.484375 C229.065625,29.40625 228.693229,29.3255208 228.526563,29.2421875 C228.307813,29.1276042 228.198438,29.0104167 228.198438,28.890625 C228.198438,28.7864583 228.279167,28.6901042 228.440625,28.6015625 C228.805208,28.3984375 229.297396,28.296875 229.917188,28.296875 C230.229688,28.296875 230.529167,28.3372396 230.815625,28.4179688 C231.102083,28.4986979 231.375521,28.6197917 231.635938,28.78125 C231.677604,28.9791667 231.771354,29.1380208 231.917188,29.2578125 C232.063021,29.3776042 232.232292,29.4375 232.425,29.4375 C232.711458,29.4375 232.938021,29.3177083 233.104688,29.078125 C233.188021,28.953125 233.229688,28.7161458 233.229688,28.3671875 L233.229688,28.3671875 L233.229688,27.9765625 C233.229688,27.5911458 233.156771,27.3164062 233.010938,27.1523438 C232.865104,26.9882812 232.682813,26.90625 232.464063,26.90625 C232.391146,26.90625 232.311719,26.9244792 232.225781,26.9609375 C232.139844,26.9973958 232.047396,27.0520833 231.948438,27.125 C231.635938,26.9791667 231.309115,26.8710938 230.967969,26.8007812 C230.626823,26.7304688 230.271354,26.6953125 229.901563,26.6953125 C228.839063,26.6953125 227.979688,26.9557292 227.323438,27.4765625 C226.839063,27.8567708 226.596875,28.3333333 226.596875,28.90625 C226.596875,29.4635417 226.813021,29.9322917 227.245313,30.3125 C227.677604,30.6979167 228.536979,30.9583333 229.823438,31.09375 C230.688021,31.1875 231.258333,31.3020833 231.534375,31.4375 C231.810417,31.5729167 231.948438,31.7447917 231.948438,31.953125 C231.948438,32.078125 231.852083,32.1979167 231.659375,32.3125 C231.253125,32.5416667 230.682813,32.65625 229.948438,32.65625 C229.500521,32.65625 229.104688,32.6028646 228.760938,32.4960938 C228.417188,32.3893229 228.122917,32.2317708 227.878125,32.0234375 C227.805208,31.7630208 227.703646,31.5794271 227.573438,31.4726562 C227.443229,31.3658854 227.281771,31.3125 227.089063,31.3125 C226.849479,31.3125 226.655469,31.3945312 226.507031,31.5585938 C226.358594,31.7226562 226.284375,31.9973958 226.284375,32.3828125 L226.284375,32.3828125 L226.284375,32.921875 C226.284375,33.3072917 226.358594,33.5820312 226.507031,33.7460938 C226.655469,33.9101562 226.854688,33.9921875 227.104688,33.9921875 C227.198438,33.9921875 227.289583,33.9739583 227.378125,33.9375 C227.466667,33.9010417 227.55,33.8489583 227.628125,33.78125 C227.95625,33.9375 228.316927,34.0559896 228.710156,34.1367188 C229.103385,34.2174479 229.531771,34.2578125 229.995313,34.2578125 Z" id="TechDocs" fill="#000000"></path>
                <path d="M0,35.275 L0,14.4875 C0.0165942749,14.1545832 0.290403942,13.8933331 0.622294372,13.8937116 L8.1271645,13.8937116 C9.92228812,13.8902954 11.6496431,14.582003 12.9499459,15.825 C14.3451522,17.1031768 15.1155716,18.9291804 15.0595238,20.825 C15.1147345,22.7206616 14.344457,24.5463289 12.9499459,25.825 C11.6672102,27.0988645 9.93099538,27.80537 8.1271645,27.7875 L3.8146645,27.7875 L3.8146645,35.2875 L0,35.275 Z M3.8146645,24.325 L7.94047619,24.325 C8.84878583,24.3364539 9.72143769,23.9704411 10.3518684,23.3135994 C10.9822991,22.6567578 11.314469,21.7674746 11.2697511,20.85625 C11.319727,19.9413037 10.9901112,19.0464392 10.3592832,18.3844466 C9.72845512,17.722454 8.85277698,17.3524797 7.94047619,17.3625 L3.8146645,17.3625 L3.8146645,24.325 Z" id="Shape" fill="#424242"></path>
                <path d="M16.9077381,35.275 L16.9077381,19.8125 L20.5357143,19.8125 L20.5357143,22.1125 C21.2700216,20.4875 22.9439935,19.50625 25.1158009,19.50625 C25.4851343,19.5009441 25.8540846,19.532347 26.2172619,19.6 L26.2172619,23.15625 C25.7378748,23.0588705 25.2501812,23.0086332 24.7610931,23.00625 C23.6422444,22.9979123 22.5664565,23.4389039 21.7729555,24.2311601 C20.9794544,25.0234163 20.5340234,26.1012571 20.5357143,27.225 L20.5357143,35.275 L16.9077381,35.275 Z" id="Path" fill="#424242"></path>
                <path d="M27.1382576,27.54375 C27.0139461,25.3534721 27.8212321,23.2131524 29.3592503,21.6553363 C30.8972684,20.0975202 33.0214238,19.2686639 35.2031926,19.375 C37.2611833,19.2977463 39.2524057,20.1154649 40.6669372,21.61875 C42.0947518,23.1042416 42.8664132,25.1048653 42.8076299,27.16875 C42.8076299,27.63125 42.7765152,28.05625 42.7454004,28.45625 L30.7724567,28.45625 C30.8969156,30.9125 32.6953463,32.50625 35.4147727,32.50625 C36.8082356,32.5273846 38.1594881,32.0259828 39.2045455,31.1 C39.4281539,30.8942424 39.7712509,30.8942424 39.9948593,31.1 L41.79329,32.85625 C40.1242059,34.6772717 37.7539638,35.6864417 35.2903139,35.625 C33.1156976,35.7113277 30.9959618,34.9267402 29.3971861,33.44375 C27.8629143,31.9198372 27.042285,29.8150689 27.1382576,27.65 L27.1382576,27.54375 Z M39.0801063,25.8875 C39.080566,25.6624583 39.0555126,25.4380944 39.0054113,25.21875 C38.8403507,24.5496796 38.4596641,23.9541933 37.922619,23.525 C37.1782469,22.8495304 36.2062511,22.483168 35.2031926,22.5 C34.1336724,22.4807644 33.0893247,22.8267213 32.2410714,23.48125 C31.4622566,24.0443374 30.9614623,24.9160032 30.8658009,25.875 L39.0801063,25.8875 Z" id="Shape" fill="#424242"></path>
                <path d="M50.0324675,35 L42.3844697,19.8125 L46.2053571,19.8125 L50.6672078,29.01875 L55.1228355,19.8125 L58.9126082,19.8125 L51.2895022,35 C51.170214,35.2387841 50.9269828,35.3895285 50.6609848,35.3895285 C50.3949869,35.3895285 50.1517557,35.2387841 50.0324675,35 Z" id="Path" fill="#424242"></path>
                <path d="M58.5454545,27.54375 C58.4217335,25.3580221 59.2257209,23.2219571 60.7581368,21.66501 C62.2905528,20.1080629 64.4079486,19.2759781 66.5854978,19.375 C68.6454839,19.2967466 70.6390132,20.1144812 72.0554654,21.61875 C73.4816141,23.1048746 74.2510873,25.1056409 74.1899351,27.16875 C74.1899351,27.63125 74.1899351,28.05625 74.1339286,28.45625 L62.1796537,28.45625 C62.2978896,30.9125 64.1025433,32.50625 66.8219697,32.50625 C68.1961886,32.5134456 69.5250764,32.0129459 70.5557359,31.1 C70.7886134,30.8999452 71.1318411,30.8999452 71.3647186,31.1 L73.1569264,32.85 C71.4981317,34.6603951 69.1467463,35.6705629 66.6975108,35.625 C64.5224588,35.7141017 62.4016983,34.9291349 60.8043831,33.44375 C59.2701113,31.9198372 58.4494819,29.8150689 58.5454545,27.65 L58.5454545,27.54375 Z M70.4872835,25.8875 C70.4821191,24.9620857 70.0528692,24.0906322 69.3235931,23.525 C68.5758336,22.8428379 67.5953939,22.4758124 66.5854978,22.5 C65.5162766,22.4827391 64.4725595,22.8284869 63.6233766,23.48125 C62.8463002,24.0450157 62.3477037,24.9168 62.254329,25.875 L70.4872835,25.8875 Z" id="Shape" fill="#424242"></path>
                <path d="M76.1812771,35.275 L76.1812771,19.8125 L79.8154762,19.8125 L79.8154762,22.025 C80.5497835,20.51875 82.3046537,19.525 84.4889069,19.525 C88.1542208,19.525 90.3260281,21.8875 90.3260281,25.71875 L90.3260281,35.275 L86.6607143,35.275 L86.6607143,26.25 C86.6607143,24.13125 85.4161255,22.8125 83.3936688,22.8125 C82.4327038,22.7713734 81.4985902,23.1367752 80.8184691,23.8198536 C80.1383474,24.502932 79.7745274,25.4411071 79.8154762,26.40625 L79.8154762,35.275 L76.1812771,35.275 Z" id="Path" fill="#424242"></path>
                <path d="M94.327381,23.15625 L92.4044913,23.15625 L92.4044913,19.8125 L94.327381,19.8125 L94.327381,15.58125 L97.9926948,15.58125 L97.9926948,19.8125 L101.384199,19.8125 L101.384199,23.15625 L97.9926948,23.15625 L97.9926948,30.03125 C97.9926948,31.71875 98.5714286,32.3375 99.9155844,32.3375 C100.346258,32.3454828 100.77641,32.3035389 101.197511,32.2125 L101.197511,35.49375 C100.584032,35.6248043 99.9577411,35.685609 99.3306277,35.675 C96.0013528,35.675 94.3522727,33.93125 94.3522727,30.43125 L94.327381,23.15625 Z" id="Path" fill="#424242"></path>
                <path d="M104.271645,19.8125 L107.968074,19.8125 L107.968074,28.83125 C107.968074,31.1625 109.281115,32.3 111.32224,32.3 C113.363366,32.3 114.68263,31.13125 114.68263,28.8 L114.68263,19.8125 L118.379058,19.8125 L118.379058,29.04375 C118.379058,31.19375 117.706981,32.85 116.362825,33.9875 C114.931128,35.1475841 113.129268,35.7471148 111.291126,35.675 C109.463879,35.7506139 107.672531,35.1501604 106.256764,33.9875 C104.894079,32.7588936 104.163293,30.9734531 104.271645,29.1375 L104.271645,19.8125 Z" id="Path" fill="#424242"></path>
                <path d="M121.017587,35.275 L121.017587,19.8125 L124.651786,19.8125 L124.651786,22.1125 C125.37987,20.4875 127.060065,19.50625 129.231872,19.50625 C129.599147,19.5008636 129.966041,19.5322689 130.32711,19.6 L130.32711,23.15625 C129.825158,23.0552944 129.314406,23.005044 128.802489,23.00625 C126.269751,23.00625 124.651786,24.6 124.651786,27.14375 L124.651786,35.26875 L121.017587,35.275 Z" id="Path" fill="#424242"></path>
                <path d="M131.248106,27.54375 C131.125017,25.3499601 131.936413,23.2070669 133.479825,21.6497891 C135.023239,20.0925112 137.153097,19.2677285 139.337933,19.38125 C141.395924,19.3039963 143.387146,20.1217149 144.801677,21.625 C146.229492,23.1104916 147.001153,25.1111153 146.94237,27.175 C146.94237,27.6375 146.911255,28.0625 146.880141,28.4625 L134.882305,28.4625 C135.006764,30.91875 136.805195,32.5125 139.524621,32.5125 C140.89884,32.5196956 142.227728,32.0191959 143.258387,31.10625 C143.491265,30.9061952 143.834493,30.9061952 144.06737,31.10625 L145.859578,32.85625 C144.199165,34.6673314 141.844677,35.675583 139.393939,35.625 C137.219323,35.7113277 135.099587,34.9267402 133.500812,33.44375 C131.96654,31.9198372 131.14591,29.8150689 131.241883,27.65 L131.248106,27.54375 Z M143.189935,25.8875 C143.184771,24.9620857 142.755521,24.0906322 142.026245,23.525 C141.284775,22.8488361 140.314396,22.4822441 139.313041,22.5 C138.243521,22.4807644 137.199173,22.8267213 136.35092,23.48125 C135.569646,24.0420999 135.068151,24.914984 134.975649,25.875 L143.189935,25.8875 Z" id="Shape" fill="#424242"></path>
            </g>
        </g>
    </g>
</svg>