<?xml version="1.0" encoding="UTF-8"?>
<svg width="24px" height="24px" viewBox="0 0 24 24" version="1.1" xmlns="http://www.w3.org/2000/svg" xmlns:xlink="http://www.w3.org/1999/xlink">
    <g id="Page-1" stroke="none" stroke-width="1" fill="none" fill-rule="evenodd">
        <g id="canary" fill="#424242" fill-rule="nonzero">
            <path d="M12,0 C18.627417,0 24,5.372583 24,12 C24,18.627417 18.627417,24 12,24 C5.372583,24 0,18.627417 0,12 C0,5.372583 5.372583,0 12,0 Z M12,1 C5.92486775,1 1,5.92486775 1,12 C1,18.0751322 5.92486775,23 12,23 C18.0751322,23 23,18.0751322 23,12 C23,5.92486775 18.0751322,1 12,1 Z M6.69863014,4 C7.08447291,4 7.39726027,4.28672175 7.39726027,4.64041096 L7.39679452,4.62178082 L12.3336532,6.67506968 C12.4564698,6.54042603 12.638513,6.45273951 12.8430653,6.44566793 L12.869863,6.44520548 C13.2557058,6.44520548 13.5684932,6.73192723 13.5684932,7.08561644 C13.5684932,7.30783669 13.4450199,7.50362145 13.2575316,7.6184674 L15.3431243,11.9315219 C15.5520323,11.9717935 15.7265749,12.0976219 15.8211065,12.2671655 L17.4871127,12.2671655 C17.602741,12.0597847 17.8380775,11.9178082 18.109589,11.9178082 C18.4954318,11.9178082 18.8082192,12.20453 18.8082192,12.5582192 C18.8082192,12.7405386 18.7251057,12.9050635 18.5917154,13.0216936 L19.1105815,14.2497031 C19.4638028,14.2816738 19.739726,14.5547926 19.739726,14.8869863 C19.739726,15.2406755 19.4269386,15.5273973 19.0410959,15.5273973 C18.7268528,15.5273973 18.4610674,15.3372144 18.3732465,15.0755631 L17.299411,14.7160548 L17.2134677,14.9065344 C17.3299018,15.0163964 17.403717,15.1644169 17.4104544,15.3281752 L17.4109589,15.3527397 C17.4109589,15.7064289 17.0981715,15.9931507 16.7123288,15.9931507 C16.5697509,15.9931507 16.4371485,15.9539996 16.3266179,15.8867855 L11.3963201,17.8563531 C11.3283313,17.9781697 11.2190292,18.0773984 11.0853562,18.1385088 L11.0516733,18.7828045 C11.2355268,18.8981648 11.3561644,19.0919901 11.3561644,19.3116438 C11.3561644,19.665333 11.043377,19.9520548 10.6575342,19.9520548 C10.4926336,19.9520548 10.3410767,19.8996845 10.2215772,19.8120983 L8.55844071,20.4213128 C8.5245632,20.7460431 8.22614199,21 7.8630137,21 C7.47717093,21 7.16438356,20.7132782 7.16438356,20.359589 C7.16438356,20.0440118 7.41339369,19.7817473 7.74112846,19.7288907 L10.5657724,13.1713233 C10.4085978,13.0538928 10.3082192,12.8750207 10.3082192,12.6746575 C10.3082192,12.5417829 10.352365,12.4183599 10.4279455,12.3160403 L6.63031087,5.27779879 C6.27653089,5.24632447 6,4.97297021 6,4.64041096 C6,4.28672175 6.31278737,4 6.69863014,4 Z M10.5681096,14.832726 L8.44368499,19.7556456 L9.97013445,19.1966582 C10.0127037,18.9814162 10.1726307,18.8036378 10.3869602,18.7210322 L10.4190994,18.1168252 C10.2133473,18.0053883 10.0753425,17.8000017 10.0753425,17.5650685 C10.0753425,17.3141111 10.2328152,17.0968685 10.462124,16.9918411 L10.5681096,14.832726 Z M11.3355548,13.3447603 L11.1436215,17.0215423 C11.2140046,17.0618492 11.2759939,17.1133243 11.3266367,17.1732613 L15.790007,15.3909881 L11.3355548,13.3447603 Z M12.8105959,8.19259589 L11.5344769,12.2548802 C11.6409991,12.3672884 11.7054795,12.5140704 11.7054795,12.6746575 C11.7054795,12.6931347 11.7046258,12.7114292 11.7029527,12.7295095 L15.8980753,14.6347808 L15.216911,13.1982808 L15.1986301,13.1986301 C14.8217605,13.1986301 14.5145878,12.9250892 14.5005045,12.5827837 L14.5,12.5582192 C14.5,12.3806392 14.5788485,12.2199406 14.7062037,12.1039368 L12.8105959,8.19259589 Z M17.4096783,12.9203664 L15.8211096,12.9203425 L16.6435137,14.6211575 L17.4096783,12.9203664 Z M18.0589993,13.3748092 L17.6965991,14.1743419 L18.5099403,14.4470992 L18.0589993,13.3748092 Z M7.39880142,5.32790258 L10.9232466,11.8612192 L12.3013735,7.45794457 C12.2717725,7.4200348 12.2465721,7.37904092 12.2264568,7.33559031 L7.39880142,5.32790258 Z" id="Combined-Shape"></path>
        </g>
    </g>
</svg>